HIERARCHY
ROOT Hips
{
	OFFSET -0.001795 -0.223333 0.028219
	CHANNELS 6 Xposition Yposition Zposition Zrotation Yrotation Xrotation 
	JOINT LeftUpLeg
	{
		OFFSET 0.069520 -0.091406 -0.006815
		CHANNELS 3 Zrotation Yrotation Xrotation
		JOINT LeftLeg
		{
			OFFSET 0.034277 -0.375199 -0.004496
			CHANNELS 3 Zrotation Yrotation Xrotation
			JOINT LeftFoot
			{
				OFFSET -0.013596 -0.397961 -0.043693
				CHANNELS 3 Zrotation Yrotation Xrotation
				JOINT LeftToe
				{
					OFFSET 0.026358 -0.055791 0.119288
					CHANNELS 3 Zrotation Yrotation Xrotation
					End Site
					{
						OFFSET 0.000000 0.000000 0.000000
					}
				}
			}
		}
	}
	JOINT RightUpLeg
	{
		OFFSET -0.067670 -0.090522 -0.004320
		CHANNELS 3 Zrotation Yrotation Xrotation
		JOINT RightLeg
		{
			OFFSET -0.038290 -0.382569 -0.008850
			CHANNELS 3 Zrotation Yrotation Xrotation
			JOINT RightFoot
			{
				OFFSET 0.015774 -0.398415 -0.042312
				CHANNELS 3 Zrotation Yrotation Xrotation
				JOINT RightToe
				{
					OFFSET -0.025372 -0.048144 0.123348
					CHANNELS 3 Zrotation Yrotation Xrotation
					End Site
					{
						OFFSET 0.000000 0.000000 0.000000
					}
				}
			}
		}
	}
	JOINT Spine
	{
		OFFSET -0.002533 0.108963 -0.026696
		CHANNELS 3 Zrotation Yrotation Xrotation
		JOINT Spine1
		{
			OFFSET 0.005487 0.135180 0.001092
			CHANNELS 3 Zrotation Yrotation Xrotation
			JOINT Spine2
			{
				OFFSET 0.001457 0.052922 0.025425
				CHANNELS 3 Zrotation Yrotation Xrotation
				JOINT Neck
				{
					OFFSET -0.002778 0.213870 -0.042857
					CHANNELS 3 Zrotation Yrotation Xrotation
					JOINT Head
					{
						OFFSET 0.005152 0.064970 0.051349
						CHANNELS 3 Zrotation Yrotation Xrotation
						End Site
						{
							OFFSET 0.000000 0.000000 0.000000
						}
					}
				}
				JOINT LeftShoulder
				{
					OFFSET 0.078845 0.121749 -0.034090
					CHANNELS 3 Zrotation Yrotation Xrotation
					JOINT LeftArm
					{
						OFFSET 0.090977 0.030469 -0.008868
						CHANNELS 3 Zrotation Yrotation Xrotation
						JOINT LeftForeArm
						{
							OFFSET 0.259612 -0.012772 -0.027456
							CHANNELS 3 Zrotation Yrotation Xrotation
							JOINT LeftHand
							{
								OFFSET 0.249234 0.008986 -0.001171
								CHANNELS 3 Zrotation Yrotation Xrotation
								End Site
								{
									OFFSET 0.000000 0.000000 0.000000
								}
							}
						}
					}
				}
				JOINT RightShoulder
				{
					OFFSET -0.081759 0.118833 -0.038615
					CHANNELS 3 Zrotation Yrotation Xrotation
					JOINT RightArm
					{
						OFFSET -0.096012 0.032551 -0.009143
						CHANNELS 3 Zrotation Yrotation Xrotation
						JOINT RightForeArm
						{
							OFFSET -0.253742 -0.013329 -0.021401
							CHANNELS 3 Zrotation Yrotation Xrotation
							JOINT RightHand
							{
								OFFSET -0.255298 0.007772 -0.005559
								CHANNELS 3 Zrotation Yrotation Xrotation
								End Site
								{
									OFFSET 0.000000 0.000000 0.000000
								}
							}
						}
					}
				}
			}
		}
	}
}
MOTION
Frames: 15
Frame Time: 0.050000
0.000000 0.933895 0.000000 0.559321 -5.407747 -3.144923 0.865747 -1.387489 -17.973344 -1.985441 0.211774 2.396469 4.482195 12.641363 23.647763 0.000000 0.000000 0.000000 3.255916 -1.572232 12.843962 -1.180018 0.361592 4.553767 -0.034193 -1.789158 3.019467 0.000000 0.000000 0.000000 1.148665 -0.499373 11.033046 -3.395280 1.780514 4.144350 1.231224 6.624295 -2.486319 3.071887 -0.838289 -11.385524 0.000000 0.000000 0.000000 -26.487842 -3.276862 -2.279889 -43.615280 -1.045675 -3.811739 -12.390679 -22.761237 3.089722 0.000000 0.000000 0.000000 22.981323 4.487494 1.294393 47.084069 12.389217 0.426736 7.081064 28.635503 2.749553 0.000000 0.000000 0.000000 
0.006195 0.929295 0.040076 0.297429 -5.359320 -3.288944 -0.488883 -1.534413 -17.026286 -0.222847 -0.013814 1.405221 2.092745 9.029335 20.527065 0.000000 0.000000 0.000000 3.242513 -1.793885 14.882379 -1.964398 0.635168 7.064117 -0.175838 -1.281078 1.465194 0.000000 0.000000 0.000000 0.487117 -0.475679 12.182253 -3.568773 1.771730 1.128406 2.980726 6.939212 -1.084192 0.834785 0.903567 -14.997439 0.000000 0.000000 0.000000 -27.421429 -1.436645 -3.403853 -43.384288 -0.421556 -4.133255 -13.832524 -21.649324 3.226921 0.000000 0.000000 0.000000 20.834565 4.524552 1.333356 49.467398 13.662585 0.967673 6.986777 29.281583 2.811188 0.000000 0.000000 0.000000 
0.014130 0.927116 0.084053 0.768367 -6.134179 -4.204178 -2.802544 -1.736863 -15.555615 1.314559 -0.369135 5.245024 2.892761 9.703635 18.682950 0.000000 0.000000 0.000000 1.413443 -1.678651 17.194029 -1.575241 0.811398 10.586886 0.168202 -0.498906 1.517500 0.000000 0.000000 0.000000 -0.223093 -0.379990 11.766307 -3.569556 1.763000 0.665869 2.067106 7.924402 0.645168 1.819627 0.173509 -12.916180 0.000000 0.000000 0.000000 -26.599472 -2.665272 -2.751763 -43.762262 -0.746263 -4.139453 -11.591717 -18.428222 2.371156 0.000000 0.000000 0.000000 22.762999 4.781959 1.784983 47.504265 16.079193 1.519943 5.875317 29.457741 2.628623 0.000000 0.000000 0.000000 
0.023282 0.927310 0.131141 0.729165 -5.039007 -5.335581 -4.145272 -1.533407 -11.964649 1.442674 -0.442916 6.454733 2.663507 8.843058 14.582730 0.000000 0.000000 0.000000 -0.138334 -1.476330 17.433934 -0.345864 0.976181 17.472044 1.583544 0.280902 6.034499 0.000000 0.000000 0.000000 -1.099668 -0.307574 11.640465 -3.287284 1.663604 2.017158 2.845876 7.212728 0.638612 0.687558 0.756314 -11.844358 0.000000 0.000000 0.000000 -27.667087 -2.702932 -2.779653 -43.188921 -1.394989 -3.864816 -10.003366 -17.749992 2.049604 0.000000 0.000000 0.000000 22.392714 5.551749 2.119125 46.724354 15.636869 1.329747 7.121871 30.469460 3.020062 0.000000 0.000000 0.000000 
0.032760 0.932230 0.177907 1.216089 -4.289152 -6.108417 -6.031336 -1.276701 -8.512752 1.858162 -0.555069 7.254225 2.733682 8.520274 11.788170 0.000000 0.000000 0.000000 -2.643549 -0.884085 14.137827 1.584384 1.040882 28.831245 3.538512 0.841282 12.880016 0.000000 0.000000 0.000000 -2.313364 -0.203704 11.435450 -2.561090 1.300828 2.726056 2.752205 7.242718 0.051460 0.790755 0.667303 -11.354997 0.000000 0.000000 0.000000 -28.072080 -3.084907 -2.773932 -42.438652 -1.493787 -3.647556 -10.077347 -17.500885 2.015640 0.000000 0.000000 0.000000 21.724937 5.088893 1.915482 47.150173 14.272468 0.874989 6.519269 32.317861 3.087088 0.000000 0.000000 0.000000 
0.040953 0.935676 0.220361 1.512253 -2.866266 -6.953866 -7.118417 -0.805757 -4.794182 1.545455 -0.506873 7.245460 2.314189 7.484253 9.493973 0.000000 0.000000 0.000000 -4.100841 -0.455334 8.776126 3.342216 0.757035 41.555682 4.521422 -0.474920 20.216144 0.000000 0.000000 0.000000 -2.465826 -0.226163 12.527338 -2.198008 1.094298 1.782423 2.670723 5.355157 0.610280 0.782313 0.655213 -12.105401 0.000000 0.000000 0.000000 -28.310417 -4.069302 -1.702651 -42.245187 -2.498621 -3.493988 -9.786883 -18.728639 2.156170 0.000000 0.000000 0.000000 21.426724 5.715231 1.929641 47.151800 13.278471 0.531878 7.707717 33.669088 3.486453 0.000000 0.000000 0.000000 
0.047466 0.937392 0.259270 1.062724 -1.592058 -7.342135 -7.418718 -0.282124 -1.394005 1.847991 -0.539979 6.619362 1.917126 6.349184 7.289502 0.000000 0.000000 0.000000 -4.621160 -0.125548 2.908433 4.705182 -0.009415 50.156313 2.005806 -5.342187 23.279867 0.000000 0.000000 0.000000 -1.950767 -0.308757 13.067808 -1.559438 0.762547 1.495105 1.650432 3.940731 0.997902 1.274065 0.375020 -12.920448 0.000000 0.000000 0.000000 -28.044369 -3.883023 -1.572708 -41.162825 -4.718450 -2.781529 -10.530110 -19.658595 2.409493 0.000000 0.000000 0.000000 21.695571 5.524836 1.679439 47.964874 12.463399 0.235828 7.014747 34.298256 3.324413 0.000000 0.000000 0.000000 
0.052661 0.939451 0.296788 0.750985 -0.395022 -7.855566 -7.743781 0.236523 1.886836 2.370736 -0.615754 6.245204 1.481239 5.241906 5.932047 0.000000 0.000000 0.000000 -4.272168 0.172710 -2.497345 5.180726 -0.631030 53.893292 -2.088126 -9.968632 16.151446 0.000000 0.000000 0.000000 -1.313513 -0.404092 13.466154 -1.426724 0.689221 1.888025 1.259204 2.621781 1.068990 0.938658 0.618871 -13.900568 0.000000 0.000000 0.000000 -28.046619 -4.979602 -0.653555 -40.941423 -6.976722 -2.117546 -9.255749 -21.381277 2.409263 0.000000 0.000000 0.000000 22.246369 5.389668 1.409112 48.244903 11.773854 -0.002110 5.412528 34.085382 2.784938 0.000000 0.000000 0.000000 
0.056998 0.940270 0.333951 0.016859 1.040950 -8.366064 -7.614614 0.756301 5.223771 3.297049 -0.740267 5.703966 0.987010 3.928980 4.557095 0.000000 0.000000 0.000000 -3.134278 0.555886 -7.705506 5.277857 -1.201368 53.154906 -4.935144 -13.762398 9.039065 0.000000 0.000000 0.000000 -0.677662 -0.505286 13.748174 -0.564494 0.245596 1.589178 0.556508 1.387536 1.827967 0.895739 0.649900 -14.332470 0.000000 0.000000 0.000000 -27.628031 -5.634897 -0.058053 -41.623450 -9.842467 -1.313425 -7.996162 -22.920713 2.350432 0.000000 0.000000 0.000000 22.462422 5.137788 1.192236 49.080796 10.274230 -0.646876 4.512489 33.785080 2.491302 0.000000 0.000000 0.000000 
0.060404 0.940081 0.371249 -0.530001 2.397972 -9.088646 -7.004964 1.284221 9.071474 3.439000 -0.689901 4.627798 0.434734 2.527090 3.539935 0.000000 0.000000 0.000000 -1.856257 0.993418 -12.147396 4.663307 -1.165688 48.029318 -5.840578 -15.280919 7.806787 0.000000 0.000000 0.000000 -0.171623 -0.607999 14.339015 0.080055 -0.106648 2.043296 0.391561 0.557209 1.623631 0.810358 0.737650 -14.889425 0.000000 0.000000 0.000000 -27.331014 -6.409234 0.469300 -42.228812 -12.298385 -0.495376 -6.886578 -23.866084 2.216448 0.000000 0.000000 0.000000 22.591495 4.838788 0.969430 49.502131 9.343133 -1.003406 2.913191 32.076491 1.902184 0.000000 0.000000 0.000000 
0.063126 0.937505 0.409523 -0.692833 3.487395 -9.486618 -6.567949 1.681801 12.312019 3.356446 -0.641191 4.124599 0.090379 1.403191 2.455008 0.000000 0.000000 0.000000 -0.753115 1.404364 -15.588145 3.530408 -0.659687 40.210194 -5.969284 -15.330356 6.876133 0.000000 0.000000 0.000000 -0.159332 -0.659830 14.942552 0.839463 -0.459632 1.087927 -0.046036 -0.520662 2.764689 1.212318 0.446103 -14.992370 0.000000 0.000000 0.000000 -27.424967 -6.481858 0.719968 -42.336379 -14.598566 0.137225 -6.027310 -26.050449 2.257742 0.000000 0.000000 0.000000 22.653278 4.482148 0.675466 49.708078 8.554338 -1.409951 2.438558 31.171308 1.708401 0.000000 0.000000 0.000000 
0.065498 0.932476 0.449155 -0.721625 4.376455 -9.677053 -6.233731 2.043534 15.536365 3.372039 -0.594425 3.440783 -0.094922 0.457731 1.242923 0.000000 0.000000 0.000000 0.052049 1.737054 -18.160481 3.526056 -0.564633 27.430750 -8.464902 -19.916393 13.323031 0.000000 0.000000 0.000000 -0.405604 -0.663605 15.179075 1.439349 -0.792870 1.487440 -0.028135 -1.193294 2.239692 0.874806 0.681931 -15.633924 0.000000 0.000000 0.000000 -27.022126 -6.720797 0.965382 -42.735673 -16.091311 0.678464 -5.746391 -27.656791 2.337895 0.000000 0.000000 0.000000 21.724527 4.381874 0.555647 49.989624 7.195076 -1.894153 2.176235 29.824147 1.533887 0.000000 0.000000 0.000000 
0.067546 0.925921 0.490318 -0.547897 4.530116 -9.174771 -6.547460 2.431633 18.155446 4.008994 -0.626057 2.681535 0.058246 0.327777 0.368400 0.000000 0.000000 0.000000 1.214289 1.973542 -18.623570 2.894561 -0.265995 13.633746 -8.982350 -20.516810 17.683730 0.000000 0.000000 0.000000 -0.535252 -0.632141 14.810690 1.397791 -0.795807 1.894020 0.148805 -2.302689 1.558384 0.168827 1.053961 -16.344694 0.000000 0.000000 0.000000 -26.948875 -6.044214 0.933096 -42.941560 -16.907429 0.898593 -5.711772 -29.809129 2.581462 0.000000 0.000000 0.000000 21.119048 4.166708 0.129657 49.806659 5.666432 -2.353720 3.558320 28.935467 1.733436 0.000000 0.000000 0.000000 
0.069044 0.918596 0.533550 -0.258083 4.868004 -8.317922 -6.800041 2.779398 20.516280 4.540596 -0.633482 1.909102 -0.006439 0.055307 0.102861 0.000000 0.000000 0.000000 1.713988 2.085296 -19.005043 2.550036 -0.219447 7.719476 -6.231023 -16.085821 17.143717 0.000000 0.000000 0.000000 -0.329214 -0.628787 14.232596 1.655579 -0.972390 2.521770 -0.285370 -3.374950 0.456434 -0.052602 1.121108 -16.506322 0.000000 0.000000 0.000000 -25.992380 -6.208372 1.325613 -43.879592 -17.473262 1.156211 -5.803925 -31.512436 2.811367 0.000000 0.000000 0.000000 21.145018 4.264061 -0.090666 49.873971 5.051446 -2.423377 2.978044 27.769513 1.461077 0.000000 0.000000 0.000000 
0.069557 0.913500 0.579562 -0.451656 5.292570 -7.554170 -5.677421 2.792907 22.447604 3.647639 -0.560128 2.508285 -0.247713 -0.066778 0.814593 0.000000 0.000000 0.000000 2.588655 2.241244 -19.211283 2.010584 -0.107557 9.179215 -5.241394 -14.485697 18.253818 0.000000 0.000000 0.000000 0.276765 -0.672292 13.753794 2.455626 -1.397873 2.521207 -1.068538 -4.101591 0.051992 0.274405 0.848705 -15.667840 0.000000 0.000000 0.000000 -25.936868 -5.446896 0.950625 -44.689114 -16.829611 0.973407 -6.996917 -31.751736 3.193100 0.000000 0.000000 0.000000 21.624679 4.337304 -0.184258 49.389531 4.672873 -2.471464 1.737153 26.559639 1.108736 0.000000 0.000000 0.000000 
